<?xml version="1.0" encoding="utf-8"?>
<!-- Generator: Adobe Illustrator 18.1.1, SVG Export Plug-In . SVG Version: 6.00 Build 0)  -->
<svg version="1.1" xmlns="http://www.w3.org/2000/svg" xmlns:xlink="http://www.w3.org/1999/xlink" x="0px" y="0px"
	 viewBox="0 0 1571.9 1571.9" enable-background="new 0 0 1571.9 1571.9" xml:space="preserve">
<g id="Layer_3" display="none">
</g>
<g id="Layer_4" display="none">
	<line display="inline" fill="#2800FF" x1="235.6" y1="793.8" x2="219" y2="858.1"/>
</g>
<g id="Layer_2">
	<circle fill="#E6E6E6" stroke="#FF4081" stroke-width="9" stroke-miterlimit="10" cx="761.5" cy="825.6" r="708.9"/>
</g>
<g id="Layer_1">
	<g id="Layer_5">
		<g>
			<defs>
				<circle id="SVGID_1_" cx="761.5" cy="825.6" r="708.9"/>
			</defs>
			<clipPath id="SVGID_2_">
				<use xlink:href="#SVGID_1_"  overflow="visible"/>
			</clipPath>
			<polygon clip-path="url(#SVGID_2_)" fill="#2F3F69" points="1295.9,1569.1 1322.5,1607 687.7,1771.8 633.2,1665.5 582.9,1672.8 
				193.4,956.9 219,858.1 235.6,793.8 282.9,610.7 494.9,620.2 557.9,672.3 643.6,639.9 771.9,822.8 836.9,639.9 1192.1,559.8 
				1372.3,918 1668.9,1514.9 			"/>
			<line clip-path="url(#SVGID_2_)" fill="#000860" x1="1192.1" y1="559.8" x2="800.5" y2="598.7"/>
			<path clip-path="url(#SVGID_2_)" fill="#000860" d="M193.4,956.9"/>
			<path clip-path="url(#SVGID_2_)" fill="#000860" d="M888.8,610.7l127.6,19L888.8,610.7z"/>
			<path clip-path="url(#SVGID_2_)" fill="#000860" d="M786,721.3"/>
			<path clip-path="url(#SVGID_2_)" fill="none" stroke="#000000" stroke-miterlimit="10" d="M1209.6,1076.9"/>
			<path clip-path="url(#SVGID_2_)" fill="none" stroke="#000000" stroke-miterlimit="10" d="M800.5,843.2"/>
			<path clip-path="url(#SVGID_2_)" fill="none" stroke="#000000" stroke-miterlimit="10" d="M868.4,714.9"/>
			<path clip-path="url(#SVGID_2_)" fill="none" stroke="#000000" stroke-miterlimit="10" d="M847.5,722.7"/>
			<path clip-path="url(#SVGID_2_)" fill="none" stroke="#000000" stroke-miterlimit="10" d="M1239.4,746.4"/>
			<path clip-path="url(#SVGID_2_)" fill="none" stroke="#000000" stroke-miterlimit="10" d="M1099.4,885.9"/>
			<path clip-path="url(#SVGID_2_)" fill="none" stroke="#000000" stroke-miterlimit="10" d="M1076,809.5"/>
			<path clip-path="url(#SVGID_2_)" fill="#FFFFFF" stroke="#FFFFFF" stroke-miterlimit="10" d="M754,867.9l324.8,1v-55.4l-50.2,0.6
				l-16.6,0c-0.3,0-0.8-0.1-1.1-0.1c-0.5,0-1.1-0.1-1.6-0.1H792.2c-3.3,0-6.5,0.1-9.6-0.2c-8.8-1-17.4-3.9-24.9-8.9
				c-8-5.2-18.4-14.7-23.8-31.3c-0.1-0.4-0.3-0.7-0.4-1.1c-0.7-2-1.4-4.1-2.1-6.3c-2.2-7.2-3.9-14.8-5.2-23.2
				c-1.9-12.1-3-24.9-3.2-39.2c-0.1-8.1,0-15.4,0.5-22.4c0-0.5,0-1,0.1-1.4c0.1-2.1,0.2-4.9,0.5-8.3c0.8-8.3,2.5-16.4,5-24.2
				c4.7-14.6,12.3-27.9,22.6-39.5c8.4-9.5,18.5-17.7,30.2-24.6c8.9-5.2,18.7-9.7,29.2-13.3c8-2.7,16.4-4.9,25.1-6.6
				c6.3-1.2,12.6-2.2,18.9-2.8c3-0.3,6.6-0.6,10.7-0.7c0.9,0,1.9,0,2.9,0h15.2H1192l0.2,86.7L849.6,650c-6.4,0.1-11.6,5.3-11.6,11.7
				l-0.2,26.6c-0.2,3.4-0.2,7.2-0.2,11.3l172.6,0c1.3,0,2.6,0,3.9,0c3.1,0.1,6.1,0.2,8.6,0.3c1,0,2,0.1,3.1,0.1l26.6,1.1
				c3,0.1,5.9,0.2,8.9,0.4c19.5,0.8,38.3,4.3,55.9,10.3c21.9,7.5,40.3,18.1,54.8,31.4c9.1,8.4,16.3,17.8,21.6,28
				c5.1,9.9,8.2,20.7,9.5,32.2c1.2,11.2,1.4,21.9,1.6,31.9c0.1,9.1,0.1,18.9,0,30c-0.1,4.9-0.2,10.2-0.3,16.5
				c-0.2,9.3-1.2,23.5-6.8,39c-2.4,6.7-7.4,14-13.4,20.6c-10.5,11.6-25.5,18.1-41.1,18.1H722.9v-91.5L754,867.9z"/>
			<path clip-path="url(#SVGID_2_)" fill="none" stroke="#000000" stroke-miterlimit="10" d="M1079.4,1007"/>
			<path clip-path="url(#SVGID_2_)" fill="none" stroke="#000000" stroke-miterlimit="10" d="M1181.7,959.1"/>
			<path clip-path="url(#SVGID_2_)" fill="none" stroke="#000000" stroke-miterlimit="10" d="M829.9,987.9"/>
			<path clip-path="url(#SVGID_2_)" fill="#FFFFFF" stroke="#FFFFFF" stroke-miterlimit="10" d="M483.8,559.8
				c85.2,0,157,44.3,167.1,103.2c1.5,8.6,2.3,17.4,2.3,26.2c0,56-40.4,124.1-40.4,124.1l94,146.1H545.6l-76.2-146.9H348.3v146.9H194
				V687l-0.6-127.2H483.8z"/>
			<path clip-path="url(#SVGID_2_)" fill="#2F3F69" d="M311.3,738.6V640h155c0.7,0,1.4,0,2.1,0c5.6-0.2,42.6,0,42.6,41.4
				c0,0,11.1,56.8-29.8,56.8L311.3,738.6z"/>
		</g>
	</g>
</g>
<g id="Layer_6">
	<text transform="matrix(1 0 0 1 387.7047 1117.7708)" fill="#F7F9F8" font-family="'Orbitron-Bold'" font-size="100">Development</text>
</g>
</svg>
